<?xml version="1.0" standalone="no"?>
<svg xmlns:xlink="http://www.w3.org/1999/xlink" id="wave" style="transform:rotate(180deg); transition: 0.3s" viewBox="0 0 1440 490" version="1.1" xmlns="http://www.w3.org/2000/svg"><defs><linearGradient id="sw-gradient-0" x1="0" x2="0" y1="1" y2="0"><stop stop-color="rgba(221, 214, 254, 1)" offset="0%"/><stop stop-color="rgba(221, 214, 254, 1)" offset="100%"/></linearGradient></defs><path style="transform:translate(0, 0px); opacity:1" fill="url(#sw-gradient-0)" d="M0,392L80,383.8C160,376,320,359,480,326.7C640,294,800,245,960,236.8C1120,229,1280,261,1440,228.7C1600,196,1760,98,1920,73.5C2080,49,2240,98,2400,155.2C2560,212,2720,278,2880,253.2C3040,229,3200,114,3360,89.8C3520,65,3680,131,3840,147C4000,163,4160,131,4320,155.2C4480,180,4640,261,4800,269.5C4960,278,5120,212,5280,155.2C5440,98,5600,49,5760,32.7C5920,16,6080,33,6240,89.8C6400,147,6560,245,6720,261.3C6880,278,7040,212,7200,171.5C7360,131,7520,114,7680,130.7C7840,147,8000,196,8160,187.8C8320,180,8480,114,8640,122.5C8800,131,8960,212,9120,261.3C9280,310,9440,327,9600,343C9760,359,9920,376,10080,318.5C10240,261,10400,131,10560,138.8C10720,147,10880,294,11040,351.2C11200,408,11360,376,11440,359.3L11520,343L11520,490L11440,490C11360,490,11200,490,11040,490C10880,490,10720,490,10560,490C10400,490,10240,490,10080,490C9920,490,9760,490,9600,490C9440,490,9280,490,9120,490C8960,490,8800,490,8640,490C8480,490,8320,490,8160,490C8000,490,7840,490,7680,490C7520,490,7360,490,7200,490C7040,490,6880,490,6720,490C6560,490,6400,490,6240,490C6080,490,5920,490,5760,490C5600,490,5440,490,5280,490C5120,490,4960,490,4800,490C4640,490,4480,490,4320,490C4160,490,4000,490,3840,490C3680,490,3520,490,3360,490C3200,490,3040,490,2880,490C2720,490,2560,490,2400,490C2240,490,2080,490,1920,490C1760,490,1600,490,1440,490C1280,490,1120,490,960,490C800,490,640,490,480,490C320,490,160,490,80,490L0,490Z"/><defs><linearGradient id="sw-gradient-1" x1="0" x2="0" y1="1" y2="0"><stop stop-color="rgba(221, 214, 254, 1)" offset="0%"/><stop stop-color="rgba(255, 255, 255, 1)" offset="100%"/></linearGradient></defs><path style="transform:translate(0, 50px); opacity:0.9" fill="url(#sw-gradient-1)" d="M0,49L80,106.2C160,163,320,278,480,269.5C640,261,800,131,960,81.7C1120,33,1280,65,1440,122.5C1600,180,1760,261,1920,294C2080,327,2240,310,2400,269.5C2560,229,2720,163,2880,138.8C3040,114,3200,131,3360,147C3520,163,3680,180,3840,187.8C4000,196,4160,196,4320,220.5C4480,245,4640,294,4800,269.5C4960,245,5120,147,5280,155.2C5440,163,5600,278,5760,294C5920,310,6080,229,6240,196C6400,163,6560,180,6720,196C6880,212,7040,229,7200,245C7360,261,7520,278,7680,302.2C7840,327,8000,359,8160,326.7C8320,294,8480,196,8640,204.2C8800,212,8960,327,9120,310.3C9280,294,9440,147,9600,73.5C9760,0,9920,0,10080,40.8C10240,82,10400,163,10560,212.3C10720,261,10880,278,11040,310.3C11200,343,11360,392,11440,416.5L11520,441L11520,490L11440,490C11360,490,11200,490,11040,490C10880,490,10720,490,10560,490C10400,490,10240,490,10080,490C9920,490,9760,490,9600,490C9440,490,9280,490,9120,490C8960,490,8800,490,8640,490C8480,490,8320,490,8160,490C8000,490,7840,490,7680,490C7520,490,7360,490,7200,490C7040,490,6880,490,6720,490C6560,490,6400,490,6240,490C6080,490,5920,490,5760,490C5600,490,5440,490,5280,490C5120,490,4960,490,4800,490C4640,490,4480,490,4320,490C4160,490,4000,490,3840,490C3680,490,3520,490,3360,490C3200,490,3040,490,2880,490C2720,490,2560,490,2400,490C2240,490,2080,490,1920,490C1760,490,1600,490,1440,490C1280,490,1120,490,960,490C800,490,640,490,480,490C320,490,160,490,80,490L0,490Z"/></svg>